<svg xmlns="http://www.w3.org/2000/svg" width="512" height="512" viewBox="0 0 135.467 135.467"><path d="M4.61 6.08h82.631v8.467H4.61z" style="fill:#666;stroke-width:.190997"/><path d="M74.122-71.847c11.92-.66 24.464-2.088 37.229.034l-1.436 8.343c-11.135-1.992-23.052-.527-35.351.078z" class="UnoptimicedTransforms" style="fill:#666;stroke-width:.126573" transform="matrix(.58773 .73913 -.74609 .58225 6.294 2.78)"/><path d="M72.323-87.548h36.289v8.467H72.323z" class="UnoptimicedTransforms" style="fill:#666;stroke-width:.126573" transform="rotate(52.065)"/><path d="M4.322 21.375h82.92v8.467H4.322z" style="fill:#666;stroke-width:.191331"/><path d="M4.185 38.069h105.039v8.467H4.185z" style="fill:#666;stroke-width:.215343"/><path d="M4.287 54.367h108.974v8.467H4.287z" style="fill:#666;stroke-width:.219339"/><path d="M33.5 70.017h89.672v8.467H33.5z" style="fill:#666;stroke-width:.198968"/><path d="M79.233 88.797h36.289v8.467H79.233z" style="fill:#666;stroke-width:.126573"/><path d="M85.384-101.612c5.035.241 10.183-.09 15.394-.62 5.813-.611 11.494-1.458 16.823-3.085 2.125-.666 4.075-1.348 5.663-2.31 1.081-.828 1.94-1.254 1.825-1.521-.017.042-.014.058-.015.14.052.013-.079-.17-.253-.518-.718-1.335-2.482-2.461-4.508-3.854l4.55-7.152c2.369 1.402 4.991 3.388 7.083 6.432.713 1.034 1.27 2.389 1.528 4.03a8.3 8.3 0 0 1-.605 4.26c-1.451 2.845-3.473 4.59-5.311 5.48-2.512 1.451-5.075 2.402-7.503 3.116-6.116 1.838-12.326 2.79-18.41 3.404-5.432.568-11 .911-16.654.656z" class="UnoptimicedTransforms" style="fill:#666;stroke-width:.140377" transform="rotate(90 3.13 .348)"/><path d="M78.054-89.56c7.21-.056 14.484-.213 21.824-.133 3.542-.013 7.625-.068 11.98 1.06 1.238.268 2.71.934 4.221 2.157 1.275 1.2 2.096 2.59 2.465 4.02.397 1.583.486 2.945.451 4.027-.005 1.461-.088 2.815-.154 4.064l-8.456-.436c.066-1.318.146-2.53.144-3.637-.033-.86-.018-1.462-.142-1.749-.051-.08-.025-.113.076.047.089-.038-.262-.095-.857-.332-2.69-.817-6.055-.66-9.821-.755-7.156-.08-14.378.077-21.665.134z" class="UnoptimicedTransforms" style="fill:#666;stroke-width:.140377" transform="rotate(90 -15.43 -8.62)"/><path d="M88.12-66.83c6.13 3.769 12.64 8.108 17.644 14.496a29.4 29.4 0 0 1 4.861 9.484c1.111 3.85 1.43 7.766 1.226 11.527l-8.457-.419c.133-3.047-.074-6.025-.89-8.714-.697-2.396-1.907-4.688-3.466-6.735-3.68-4.969-9.45-8.634-15.422-12.472z" class="UnoptimicedTransforms" style="fill:#666;stroke-width:.126573" transform="rotate(90 16.845 32.584)"/><path d="M83.801-48.914h29.956v8.467H83.801z" style="fill:#666;stroke-width:.115001" transform="rotate(90)"/><path d="M104.076-43.088c6.358.015 12.926-.025 19.62.739a53.2 53.2 0 0 1 13.627 3.46l-3.155 7.858a44.3 44.3 0 0 0-11.447-2.908c-6.001-.708-12.255-.65-18.677-.683z" class="UnoptimicedTransforms" style="fill:#666;stroke-width:.115001" transform="rotate(90 15 -21.272)"/><path d="M96.036-42.087c16.513-.882 33.37 1.3 48.942 7.42 4.39 1.72 8.765 3.788 12.898 6.448 1.08.684 2.264 1.504 3.457 2.56.27.2.713.65 1.275 1.39.102.049.244.29.418.725l-7.622 3.651q.197.523.265.476c.21.236.193.266.004.054-.61-.565-1.438-1.114-2.393-1.746-3.484-2.263-7.363-4.076-11.409-5.683-14.235-5.64-29.91-7.628-45.394-6.84z" class="UnoptimicedTransforms" style="fill:#666;stroke-width:.115001" transform="rotate(90 7.746 -26.19)"/></svg>